<?xml version="1.0" ?><svg id="Layer_1" style="enable-background:new 0 0 512 512;" version="1.1" viewBox="0 0 512 512" xml:space="preserve" xmlns="http://www.w3.org/2000/svg" xmlns:xlink="http://www.w3.org/1999/xlink"><style type="text/css">
	.st0{fill:#232020;}
</style><g><path class="st0" d="M206,76.1h-80.3c-27.3,0-49.6,22.2-49.6,49.6V206c0,27.3,22.2,49.6,49.6,49.6H206c27.3,0,49.6-22.2,49.6-49.6   v-80.3C255.5,98.3,233.3,76.1,206,76.1z M241.5,206c0,19.6-16,35.6-35.6,35.6h-80.3c-19.6,0-35.6-16-35.6-35.6v-80.3   c0-19.6,16-35.6,35.6-35.6H206c19.6,0,35.6,16,35.6,35.6V206z"/><path class="st0" d="M386.3,256.5H306c-27.3,0-49.6,22.2-49.6,49.6v80.3c0,27.3,22.2,49.6,49.6,49.6h80.3   c27.3,0,49.6-22.2,49.6-49.6V306C435.9,278.7,413.7,256.5,386.3,256.5z M421.9,386.3c0,19.6-16,35.6-35.6,35.6H306   c-19.6,0-35.6-16-35.6-35.6V306c0-19.6,16-35.6,35.6-35.6h80.3c19.6,0,35.6,16,35.6,35.6V386.3z"/><path class="st0" d="M219.7,410.4c-53.5-12.9-96.1-54.5-110.6-107.2h23.5c3.9,0,7-3.1,7-7s-3.1-7-7-7H91.6l1.8,8.5   c13.2,61.9,61.5,111.5,123,126.4c0.6,0.1,1.1,0.2,1.6,0.2c3.2,0,6-2.2,6.8-5.4C225.8,415.1,223.5,411.3,219.7,410.4z"/><path class="st0" d="M284.3,116c53.5,12.9,96.1,54.5,110.6,107.2h-23.5c-3.9,0-7,3.1-7,7s3.1,7,7,7h41.1l-1.8-8.5   c-13.2-61.9-61.5-111.5-123-126.4c-3.8-0.9-7.5,1.4-8.4,5.2S280.5,115.1,284.3,116z"/><path class="st0" d="M207.4,147.1h-38.1v-23.7c0-1.9-1.6-3.5-3.5-3.5s-3.5,1.6-3.5,3.5v23.7h-38.1c-1.9,0-3.5,1.6-3.5,3.5   s1.6,3.5,3.5,3.5h12.9c1.3,9.5,7.3,22.8,15.6,33.8c2,2.7,4.7,5.9,7.8,9c-5.7,4.5-12.6,7.9-20.2,7.9c-1.9,0-3.5,1.6-3.5,3.5   s1.6,3.5,3.5,3.5c9.9,0,18.5-4.6,25.5-10.2c6.9,5.6,15.6,10.2,25.5,10.2c1.9,0,3.5-1.6,3.5-3.5s-1.6-3.5-3.5-3.5   c-7.6,0-14.5-3.5-20.2-7.9c3.2-3.2,5.8-6.4,7.8-9c8.3-11,14.3-24.2,15.6-33.8h12.9c1.9,0,3.5-1.6,3.5-3.5S209.3,147.1,207.4,147.1z    M173.3,183.6c-1.9,2.5-4.5,5.6-7.5,8.6c-3.1-3-5.6-6.1-7.5-8.6c-8.1-10.7-12.9-22.1-14.1-29.6h43.3   C186.2,161.5,181.4,172.9,173.3,183.6z"/><path class="st0" d="M349.4,303.8C349.4,303.8,349.4,303.8,349.4,303.8c-0.1-0.2-0.1-0.3-0.2-0.4c0-0.1-0.1-0.2-0.1-0.3   c-0.1-0.1-0.1-0.2-0.2-0.3c-0.1-0.1-0.1-0.2-0.2-0.3c-0.1-0.1-0.2-0.1-0.2-0.2c-0.1-0.1-0.2-0.2-0.3-0.2c-0.1,0-0.2-0.1-0.2-0.1   c-0.1-0.1-0.2-0.1-0.4-0.2c0,0,0,0,0,0c-0.1,0-0.1,0-0.2-0.1c-0.1,0-0.3-0.1-0.4-0.1c-0.1,0-0.2,0-0.3,0c-0.1,0-0.2,0-0.4,0   c-0.1,0-0.2,0-0.3,0c-0.1,0-0.2,0-0.3,0c-0.1,0-0.3,0.1-0.4,0.1c-0.1,0-0.1,0-0.2,0.1c0,0,0,0,0,0c-0.1,0.1-0.3,0.1-0.4,0.2   c-0.1,0-0.2,0.1-0.2,0.1c-0.1,0.1-0.2,0.2-0.3,0.2c-0.1,0.1-0.2,0.1-0.2,0.2c-0.1,0.1-0.1,0.2-0.2,0.3c-0.1,0.1-0.1,0.2-0.2,0.3   c-0.1,0.1-0.1,0.2-0.1,0.3c-0.1,0.1-0.1,0.2-0.2,0.3c0,0,0,0,0,0l-32.5,82.1c-0.7,1.8,0.2,3.8,2,4.5c0.4,0.2,0.9,0.2,1.3,0.2   c1.4,0,2.7-0.8,3.3-2.2l9.1-23h40.3l9.1,23c0.5,1.4,1.9,2.2,3.3,2.2c0.4,0,0.9-0.1,1.3-0.2c1.8-0.7,2.7-2.7,2-4.5L349.4,303.8z    M328.8,358.6l17.4-43.9l17.4,43.9H328.8z"/></g></svg>